<svg width="56" height="100" viewBox="0 0 56 100" fill="none" xmlns="http://www.w3.org/2000/svg">
<g clip-path="url(#clip0_15_50)">
<path d="M12.3511 0V23.7857H44.0975V57.1171C44.0975 60.7229 43.6234 63.6486 42.8198 66.02C40.503 72.8686 35.4404 75.1143 31.0934 75.8543C29.475 76.1286 27.956 76.1943 26.7152 76.2086C26.3262 76.2143 25.9656 76.2143 25.6363 76.2143C21.5874 76.2143 18.1376 75.26 15.568 74.2114C14.9434 73.9571 14.3698 73.6971 13.8531 73.4429C11.7889 72.4286 10.6247 71.5257 10.6247 71.5257L1.65532 85.9371C1.65532 85.9371 2.61501 87.1571 4.32996 88.88C4.52588 89.08 4.73599 89.2857 4.95461 89.5C6.79734 91.2829 9.33569 93.4657 12.3823 95.38C13.501 96.0829 14.6878 96.7486 15.9371 97.3429H15.94C16.2381 97.4886 16.5362 97.6257 16.8429 97.76H16.8457C17.3568 97.9857 17.8735 98.1972 18.4045 98.3943C21.0309 99.3772 23.8674 100 26.843 100C27.3313 100 27.8197 99.9857 28.3109 99.9571C28.6573 99.94 29.0065 99.9143 29.3529 99.88C33.1917 99.5114 37.0219 98.2771 40.537 96.0057H40.5399C41.8488 95.1571 43.1151 94.1629 44.319 93.0171C46.4173 91.0171 48.331 88.5543 49.9778 85.5714C50.0346 85.4629 50.0942 85.3543 50.1538 85.2457C51.829 82.1343 53.2118 78.4743 54.2141 74.2057C54.3645 73.5629 54.5065 72.9086 54.64 72.24C55.3384 68.7086 55.7899 64.7943 55.9404 60.4657C55.9801 59.3743 56 58.2629 56 57.12V0H12.3511Z" fill="white"/>
<path fill-rule="evenodd" clip-rule="evenodd" d="M0.834755 49.1828C-0.2811 50.3057 -0.2811 52.1371 0.834755 53.26L9.09435 61.5686C9.35557 61.8314 9.6537 62.0314 9.97738 62.1714H9.98306L9.99158 62.1771C11.0506 62.6657 12.3482 62.4714 13.217 61.5971L21.4766 53.2857C22.5897 52.1657 22.5897 50.3314 21.4766 49.2086C20.3608 48.0886 18.5408 48.0886 17.4249 49.2086L11.1727 55.5L4.88931 49.1771C3.77629 48.0571 1.95345 48.0571 0.837594 49.1771L0.834755 49.1828Z" fill="white"/>
<path fill-rule="evenodd" clip-rule="evenodd" d="M0.834755 34.1886C-0.2811 35.3086 -0.2811 37.1428 0.834755 38.2657L9.09435 46.5743C9.35557 46.8371 9.6537 47.04 9.97738 47.1771H9.98306L9.99158 47.1829C11.0506 47.6714 12.3482 47.4771 13.217 46.6029L21.4766 38.2943C22.5897 37.1714 22.5897 35.34 21.4766 34.2171C20.3608 33.0971 18.5408 33.0971 17.4249 34.2171L11.1727 40.5086L4.88931 34.1857C3.77629 33.0629 1.95345 33.0629 0.837594 34.1857L0.834755 34.1886Z" fill="white"/>
</g>
<defs>
<clipPath id="clip0_15_50">
<rect width="56" height="100" fill="white"/>
</clipPath>
</defs>
</svg>
